<svg height="512" viewBox="0 0 41 60" width="512" xmlns="http://www.w3.org/2000/svg"><g id="036---Henna-Tattoo" fill="none" fill-rule="evenodd"><g id="Icons" transform="translate(1)"><path id="Shape" d="m36.2 51.73c-.29.4-.2.37-.2 4.28 0 1.6568542-1.3431458 3-3 3h-18c-1.6568542 0-3-1.3431458-3-3v-3.41c-.0021435-.3551111-.1924555-.6824477-.5-.86-4.15707981-2.4238299-6.65214994-6.9303104-6.5-11.74 0-3.69-1.62-10.69-4-14-1.84-2.55-.87-4.15.76-4.74 1.44397096-.5293175 3.06069609-.2471532 4.24.74 2.62 2.62 5 8.22 5 11v-24.5c.0022981-1.34815822.7808811-2.57442641 2-3.15 1.1160655-.50621027 2.4145586-.39917385 3.4326674.28295907 1.0181089.68213293 1.610992 1.84231859 1.5673326 3.06704093v-4.2c-.0001538-1.34887191.7791922-2.57634184 2-3.15.8453802-.41694818 1.825915-.46423099 2.7074912-.13055913.8815762.33367185 1.5850678 1.0183496 1.9425088 1.89055913.44.94.35 1.61.35 3.28.0336478-.94102118.4429212-1.82933054 1.1363397-2.46637356s1.6131658-.9697039 2.5536603-.92362644c1.9036995.17289352 3.3493438 1.78887048 3.31 3.7v10.82c.013534-1.652509 1.15945-3.0797329 2.77-3.45 1.0338264-.2166758 2.1102615.0437477 2.9307141.7090319.8204525.6652843 1.2976731 1.6646808 1.2992859 2.7209681v20.5c0 9.74.24 9.67-2.8 13.73z" fill="#ffe0b2" fill-rule="nonzero"/><path id="Shape" d="m29 6.7v10.82c.013534-1.652509 1.15945-3.0797329 2.77-3.45.0765874-.0049306.1534126-.0049306.23 0v-7.37c.0393438-1.91112952-1.4063005-3.52710648-3.31-3.7-.5848242-.02618534-1.1666183.09774713-1.69.36 1.2376111.65298448 2.0087082 1.94071658 2 3.34z" fill="#dfc49c" fill-rule="nonzero"/><path id="Shape" d="m39 38v-20.5c-.0016128-1.0562873-.4788334-2.0556838-1.2992859-2.7209681-.8204526-.6652842-1.8968877-.9257077-2.9307141-.7090319-.2670994.0616689-.5256766.155697-.77.28 1.2191189.5755736 1.9977019 1.8018418 2 3.15v20.5c0 9.74.24 9.67-2.8 13.73-.29.4-.2.37-.2 4.28 0 1.6568542-1.3431458 3-3 3h3c1.6568542 0 3-1.3431458 3-3 0-3.91-.09-3.88.2-4.28 3.04-4.06 2.8-3.99 2.8-13.73z" fill="#dfc49c" fill-rule="nonzero"/><path id="Shape" d="m36 53v3c0 1.6568542-1.3431458 3-3 3h-18c-1.6568542 0-3-1.3431458-3-3v-3l3-2 2-1.33 3.67-2.45 2.33-1.55.45-.3c.3337325-.2197805.7662675-.2197805 1.1 0l.45.3 2.33 1.55 3.67 2.45 1.17.78.83.55z" fill="#6a1b9a" fill-rule="nonzero"/><path id="Shape" d="m33 51.17v3.93c0 2.15-1.35 3.9-3 3.9h-15c-1.6568542 0-3-1.3431458-3-3v-3l3-2 2-1.33 3.67-2.45 2.33-1.55.45-.3c.3337325-.2197805.7662675-.2197805 1.1 0l.45.3 2.33 1.55 3.67 2.45 1.17.78z" fill="#9d27b0" fill-rule="nonzero"/><path id="Fill-1124" d="m34.48 14.1c.1042267-.0406908.2111499-.0741043.32-.1-.1088501.0258957-.2157733.0593092-.32.1"/><g fill-rule="nonzero"><path id="Rectangle-path" d="m11 14h7v4h-7z" fill="#9d27b0"/><path id="Rectangle-path" d="m25 14h7v4h-7z" fill="#9d27b0"/><path id="Rectangle-path" d="m32 21h7v4h-7z" fill="#6a1b9a"/><path id="Rectangle-path" d="m32 21h4v4h-4z" fill="#9d27b0"/><path id="Rectangle-path" d="m18 8h7v4h-7z" fill="#9d27b0"/><path id="Shape" d="m24 41c.4935094.000178.9823822.0952366 1.44.28.3876878-.8675195.5789121-1.8099819.56-2.76-.0572242-1.1430807-.4815582-2.2372313-1.21-3.12-.1894263-.2440794-.4810387-.3868932-.79-.3868932s-.6005737.1428138-.79.3868932c-.7284418.8827687-1.1527758 1.9769193-1.21 3.12-.0189121.9500181.1723122 1.8924805.56 2.76.4576178-.1847634.9464906-.279822 1.44-.28z" fill="#ffdc00"/><path id="Shape" d="m30.87 37c-1.3790969.3521005-2.649998 1.0390741-3.7 2-.6847438.6605372-1.2171242 1.4625206-1.56 2.35.8879874.4008519 1.5991481 1.1120126 2 2 .898135-.3259986 1.7139313-.8448314 2.39-1.52.9630455-1.0523637 1.6502043-2.3270434 2-3.71.0404615-.3095003-.0659147-.6201424-.2876055-.8398713-.2216907-.2197289-.5332661-.3233397-.8423945-.2801287z" fill="#ffdc00"/><path id="Shape" d="m33.6 44.21c-.8827687-.7284418-1.9769193-1.1527758-3.12-1.21-.9500181-.0189121-1.8924805.1723122-2.76.56.373633.9236454.373633 1.9563546 0 2.88.8675195.3876878 1.8099819.5789121 2.76.56 1.1430807-.0572242 2.2372313-.4815582 3.12-1.21.2440794-.1894263.3868932-.4810387.3868932-.79s-.1428138-.6005737-.3868932-.79z" fill="#ffdc00"/><path id="Shape" d="m22.39 41.35c-.3428758-.8874794-.8752562-1.6894628-1.56-2.35-1.0526138-.9572485-2.3225491-1.6437-3.7-2-.311103-.0439311-.6247649.0609042-.8469303.2830697-.2221655.2221654-.3270008.5358273-.2830697.8469303.3563 1.3774509 1.0427515 2.6473862 2 3.7.6605372.6847438 1.4625206 1.2171242 2.35 1.56.4025629-.9100876 1.1299124-1.6374371 2.04-2.04z" fill="#ffdc00"/><path id="Shape" d="m20 45c.000178-.4935094.0952366-.9823822.28-1.44-.8675195-.3876878-1.8099819-.5789121-2.76-.56-1.1430807.0572242-2.2372313.4815582-3.12 1.21-.2440794.1894263-.3868932.4810387-.3868932.79s.1428138.6005737.3868932.79c.8827687.7284418 1.9769193 1.1527758 3.12 1.21.9500181.0189121 1.8924805-.1723122 2.76-.56-.1799959-.4590165-.2748777-.9469803-.28-1.44z" fill="#ffdc00"/><path id="Shape" d="m9.18 26.78c-.69 1.11-4.41 3.58-6.1 3.46-.45618361-1.3345546-1.05639066-2.6154434-1.79-3.82 1.69.13 5-2.22 5.66-3.33.86932971 1.1493089 1.61668859 2.38597 2.23 3.69z" fill="#9d27b0"/><path id="Shape" d="m28 45c.0007696.7899229-.2323622 1.5623893-.67 2.22l-2.78-1.85c-.3337325-.2197805-.7662675-.2197805-1.1 0l-2.78 1.85c-.9486227-1.4254408-.884772-3.2965822.1588143-4.6540409 1.0435863-1.3574588 2.8354388-1.9001481 4.4568277-1.3498169 1.621389.5503312 2.7126874 2.0716184 2.714358 3.7838578z" fill="#ff9801"/></g></g><g id="Layer_11" fill="#000" fill-rule="nonzero"><path id="Shape" d="m10.5 44.13c-.3108211.1786328-.50273211.5095174-.5034421.8680127s.1898889.6901375.5.87.692621.1806201 1.0034421.0019873c.4804877-.2761424.6461424-.8895123.37-1.37s-.8895123-.6461424-1.37-.37z"/><circle id="Oval" cx="34.994" cy="35.006" r="1" transform="matrix(.259 -.966 .966 .259 -7.877 59.747)"/><circle id="Oval" cx="15.012" cy="35.005" r="1" transform="matrix(.259 -.966 .966 .259 -22.686 40.446)"/><circle id="Oval" cx="25.005" cy="30.998" r="1" transform="matrix(.259 -.966 .966 .259 -11.409 47.128)"/><path id="Shape" d="m16 60h18c2.209139 0 4-1.790861 4-4v-3.67c3-4 3-4.5 3-12.35v-22.48c-.0074548-1.6571016-.9230676-3.1766448-2.3846525-3.9575487-1.461585-.7809039-3.233697-.6973738-4.6153475.2175487v-7.06c.0566162-1.75571317-.9091143-3.38521566-2.47641-4.17851167-1.5672956-.79329601-3.4522603-.60668986-4.83359.47851167-.7510597-2.10273778-2.9358523-3.33141942-5.1227842-2.88094668s-3.7082973 2.44256321-3.5672158 4.67094668c-1.3731717-.93422037-3.1504919-1.03211525-4.6179594-.25435745-1.4674676.77775781-2.3842467 2.30352531-2.3820406 3.96435745v17.68c-.8414965-1.7878891-1.95093669-3.4368747-3.29-4.89-1.86083494-1.6284455-4.61000292-1.7245411-6.58-.23-.57.48-2.26 2.32.06 5.53 2.14 2.97 3.81 9.65 3.81 13.41-.14971879 5.1648788 2.53562886 9.9985045 7 12.6v3.4c0 1.060866.4214274 2.0782816 1.1715729 2.8284271s1.7675611 1.1715729 2.8284271 1.1715729zm18-2h-8v-3c0-.5522847-.4477153-1-1-1s-1 .4477153-1 1v3h-8c-1.1045695 0-2-.8954305-2-2v-2.47l2-1.33v2.8c0 .5522847.4477153 1 1 1s1-.4477153 1-1v-4.13c5.25-3.5 4.09-2.68 4.32-2.88l1.68-1.12v3.13c0 .5522847.4477153 1 1 1s1-.4477153 1-1v-3.13l6 4v4.13c0 .5522847.4477153 1 1 1s1-.4477153 1-1v-2.8l2 1.34v2.46c0 1.1045695-.8954305 2-2 2zm-9-22c.9662267 1.124133 1.2735276 2.6720188.81 4.08-.5276613-.1100011-1.0723387-.1100011-1.6 0-.4569299-1.405293-.1584468-2.9468265.79-4.08zm1.12 8.54c-.6720737-.4483991-1.5479263-.4483991-2.22 0l-1.8 1.19c-.3223741-1.2171166.1495536-2.5060278 1.1816289-3.2272202 1.0320753-.7211925 2.4046669-.7211925 3.4367422 0 1.0320753.7211924 1.504003 2.0101036 1.1816289 3.2272202zm3.81-.34c1.4041111-.4485459 2.9401243-.1466269 4.07.8-1.1208861.964292-2.6631591 1.2750202-4.07.82.0983749-.5358413.0949824-1.085414-.01-1.62zm.37-3.08c-.3676094.3863582-.7845322.7225862-1.24 1-.3223099-.4312581-.7103748-.8091995-1.15-1.12.2774138-.4554678.6136418-.8723906 1-1.24.8849152-.8110588 1.9410032-1.4125846 3.09-1.76-.3206757 1.1583978-.9060603 2.226468-1.71 3.12zm-8.21-.12c-.4160595.3064758-.7835242.6739405-1.09 1.09-.4554678-.2774138-.8723906-.6136418-1.24-1-.8110588-.8849152-1.4125846-1.9410032-1.76-3.09 1.1574799.317743 2.2254724.8996621 3.12 1.7.380035.3879874.7062803.8252234.97 1.3zm-2 3.25c-.1008874.5319252-.1008874 1.0780748 0 1.61-1.4203286.4397259-2.9670394.1145006-4.09-.86 1.1251673-.9646062 2.6738757-1.2682745 4.08-.8zm15.91-29.2c.7351105-.1463314 1.4971514.0435199 2.077689.5176257.5805377.4741057.9188168 1.182849.922311 1.9323743v2.5h-5v-2.48c.0093238-1.1889062.8390337-2.2135979 2-2.47zm-16-6.05h5v2h-5zm7 6h5v2h-5zm7 7h5v2h-5zm-2-15.3v6.3h-5v-6.57c.0143652-.66153285.2957007-1.28912726.78-1.74.7569798-.69531773 1.8603896-.86120962 2.7883584-.41921505.9279687.44199457 1.4944983 1.40328418 1.4316416 2.42921505zm-11.22-4c.755678-.69365256 1.8563952-.86003808 2.7833324-.42073134s1.4950924 1.39662706 1.4366676 2.42073134v2.3h-5.0000152l.0000152-2.5c-.0024012-.68542465.2801234-1.34102657.78-1.81zm-7.78 5.8c-.0009284-.6861922.2802332-1.34260085.7775809-1.81536486.4973478-.47276402 1.1671547-.7203178 1.8524191-.68463514 1.3648067.14481946 2.3931993 1.3077275 2.37 2.68v4.32h-5.0000023zm0 6.5h5v2h-5zm-9.15 12.15c1.47929536-.5594001 2.83726735-1.3979478 4-2.47.4.62.78 1.28 1.13 2-1.23818255 1.1099243-2.68212822 1.9660992-4.25 2.52-.27-.75-.56-1.42-.88-2.05zm-1.42-4.57c1.17941197-.7958998 2.7368096-.7434486 3.86.13.12.12.24.25.35.38-1.08865618 1.0512081-2.40662955 1.8351455-3.85 2.29-.64-.89-1.2-2.08-.36-2.8zm4.57 17.42c-.1189736-3.0590824-.65733265-6.087352-1.6-9 1.63250778-.5459922 3.14612739-1.3978274 4.46-2.51.6390622 1.4257101 1.0248308 2.9518647 1.14 4.51 0 .5522847.4477153 1 1 1s1-.4477153 1-1v-14h5v7c0 .5522847.4477153 1 1 1s1-.4477153 1-1v-13h5v14c0 .5522847.4477153 1 1 1s1-.4477153 1-1v-8h5v10c0 .5522847.4477153 1 1 1s1-.4477153 1-1v-3h5v14c0 7.66 0 7.66-2.6 11.15 0 .06-.06.14-.1.2l-5-3.34c1.4317897.0054225 2.8197108-.4938042 3.92-1.41.4881588-.3788525.7737863-.9620775.7737863-1.58s-.2856275-1.2011475-.7737863-1.58c-.8907714-.715573-1.9520541-1.187637-3.08-1.37.9014604-1.1121619 1.5375705-2.4151616 1.86-3.81.0878622-.622206-.1218083-1.2495297-.5661393-1.6938607s-1.0716547-.6540015-1.6938607-.5661393c-1.3710167.3352763-2.649169.9743524-3.74 1.87-.182363-1.1279459-.654427-2.1892286-1.37-3.08-.3894438-.4710854-.9687817-.7438224-1.58-.7438224s-1.1905562.272737-1.58.7438224c-.715573.8907714-1.187637 1.9520541-1.37 3.08-1.1199401-.9091216-2.4337064-1.5488984-3.84-1.87-.622206-.0878622-1.2495297.1218083-1.6938607.5661393s-.6540015 1.0716547-.5661393 1.6938607c.3223042 1.3869149.9548214 2.6827204 1.85 3.79-1.1279459.182363-2.1892286.654427-3.08 1.37-.4881588.3788525-.7737863.9620775-.7737863 1.58s.2856275 1.2011475.7737863 1.58c1.0627222.8678413 2.3790002 1.3662719 3.75 1.42.25 0 1.06-.59-4.94 3.41-.1563529-.2196214-.3574274-.4036557-.59-.54-3.83464337-2.2549067-6.13192933-6.4237712-5.99-10.87z"/><path id="Shape" d="m29 51c-.5522847 0-1 .4477153-1 1v3c0 .5522847.4477153 1 1 1s1-.4477153 1-1v-3c0-.5522847-.4477153-1-1-1z"/><path id="Shape" d="m21 51c-.5522847 0-1 .4477153-1 1v3c0 .5522847.4477153 1 1 1s1-.4477153 1-1v-3c0-.5522847-.4477153-1-1-1z"/></g></g></svg>