<svg height="480pt" viewBox="-79 0 480 480.02324" width="480pt" xmlns="http://www.w3.org/2000/svg"><path d="m296.707031 480.023438v-96h-40v96" fill="#e4b69d"/><path d="m64.707031 480.023438v-96h-40v96" fill="#e4b69d"/><path d="m160.707031 8.023438c-55.660156 0-103.429687 39.644531-113.6875 94.351562-4.175781 22.257812-4.410156 45.078125-.6875 67.417969l4.496094 26.941406c3.699219 22.171875 17.777344 41.234375 37.878906 51.289063l16-24h112l16 24c20.101563-10.054688 34.183594-29.117188 37.878907-51.289063l4.496093-26.941406c3.722657-22.339844 3.488281-45.160157-.6875-67.417969-10.257812-54.707031-58.027343-94.351562-113.6875-94.351562zm0 0" fill="#f9d467"/><path d="m147.109375 106.765625-10.402344-18.742187-16 24h-32v16h-3.039062c-9.425781-.230469-17.808594 5.957031-20.359375 15.03125-1.539063 5.992187-.214844 12.355468 3.578125 17.238281 3.796875 4.886719 9.636719 7.738281 15.820312 7.730469h4v40c0 8.835937 7.164063 16 16 16h112c8.835938 0 16-7.164063 16-16v-24c-36.304687-15.558594-66.414062-42.730469-85.597656-77.257813zm0 0" fill="#e4b69d"/><path d="m248.707031 480.023438c0-15.894532 2.5625-31.6875 7.59375-46.769532l4.191407-12.582031c2.734374-8.210937 2.734374-17.085937 0-25.296875l-3.785157-11.351562h56l-6.160156-73.960938c-1.105469-13.261719-10.304687-24.457031-23.101563-28.109375l-79.128906-22.617187c-6.871094-1.960938-11.609375-8.238282-11.609375-15.382813v-19.929687h-64v19.929687c0 7.144531-4.738281 13.421875-11.605469 15.382813l-79.128906 22.617187c-12.800781 3.652344-22 14.847656-23.105468 28.109375l-6.160157 73.960938h56l-3.785156 11.351562c-2.734375 8.210938-2.734375 17.085938 0 25.296875l4.195313 12.582031c5.027343 15.082032 7.59375 30.875 7.589843 46.769532" fill="#e4b69d"/><path d="m127.109375 462.878906-8.234375-13.710937 5.695312-3.425781c23.683594-14.207032 50.777344-21.710938 78.394532-21.71875v16c-24.722656 0-48.980469 6.71875-70.175782 19.441406zm0 0"/><path d="m80.707031 112.023438h16v56h-16zm0 0" fill="#f9d467"/><path d="m120.707031 480.023438v-168l22.175781 8.871093c11.441407 4.578125 24.207032 4.578125 35.648438 0l22.175781-8.871093v168" fill="#80caa5"/><path d="m72.707031 480.023438c.003907-15.894532-2.5625-31.6875-7.589843-46.769532l-4.195313-12.582031c-2.734375-8.210937-2.734375-17.085937 0-25.296875l3.785156-11.351562h-56l6.191407-74.273438c1.089843-13.109375 10.089843-24.214844 22.6875-28l59.121093-17.726562 14.402344 19.199218c6.230469 8.308594 9.597656 18.414063 9.597656 28.800782v168" fill="#557c3e"/><path d="m248.707031 480.023438c0-15.894532 2.5625-31.6875 7.59375-46.769532l4.191407-12.582031c2.734374-8.210937 2.734374-17.085937 0-25.296875l-3.785157-11.351562h56l-6.191406-74.273438c-1.089844-13.109375-10.089844-24.214844-22.6875-28l-59.121094-17.726562-14.398437 19.199218c-6.234375 8.308594-9.601563 18.414063-9.601563 28.800782v168" fill="#557c3e"/><path d="m128.707031 224.023438h64v16h-64zm0 0" fill="#cea28b"/><path d="m136.707031 144.023438c0-8.835938-3.582031-16-8-16s-8 7.164062-8 16c0 8.835937 3.582031 16 8 16s8-7.164063 8-16zm0 0"/><path d="m286.125 274.09375-54.800781-16.46875 4.960937-2.472656c22.371094-11.230469 38.046875-32.453125 42.199219-57.136719l4.488281-26.945313c3.886719-23.257812 3.644532-47.023437-.714844-70.199218-10.96875-58.488282-62.039062-100.871094-121.550781-100.871094-59.507812 0-110.578125 42.382812-121.550781 100.871094-4.359375 23.175781-4.601562 46.941406-.710938 70.199218l4.484376 26.945313c4.132812 24.710937 19.8125 45.964844 42.203124 57.207031l4.957032 2.472656-54.796875 16.441407c-15.785157 4.671875-27.0625 18.582031-28.371094 34.992187l-6.9101562 82.894532h16.6953122v88h16v-88h20.898438l-.273438.800781c-3.257812 9.855469-3.257812 20.496093 0 30.351562l4.175781 12.609375c4.765626 14.261719 7.195313 29.199219 7.199219 44.238282h16c.007813-16.757813-2.695312-33.40625-8-49.304688l-4.191406-12.574219c-2.175781-6.574219-2.175781-13.671875 0-20.242187l7.296875-21.878906 4.488281-13.472657-15.199219-5.054687-6.160156 18.527344h-41.539062l5.441406-65.304688c.859375-9.9375 7.746094-18.324219 17.328125-21.09375l54.136719-15.457031 10.398437 13.855469c5.179688 6.929687 7.984375 15.347656 8 24v168h16v-18.113282l4.082031-2.445312c18.21875-10.921875 38.738282-17.433594 59.917969-19.027344v39.585938h16v-168c.015625-8.652344 2.820313-17.070313 8-24l10.402344-13.855469 54.132813 15.457031c9.578124 2.769531 16.464843 11.144531 17.328124 21.078125l5.441407 65.320313h-41.535157l-6.175781-18.527344-15.199219 5.054687 4.503907 13.472657 2.398437 7.296874 1.078125 3.199219 3.785157 11.351563c2.175781 6.570312 2.175781 13.667968 0 20.238281l-4.160157 12.609375c-5.304687 15.898438-8.003906 32.546875-8 49.304688h16c.003907-15.039063 2.4375-29.976563 7.199219-44.238282l4.203125-12.585937c3.253906-9.855469 3.253906-20.496094 0-30.351563l-.273437-.800781h20.871093v87.976563h16v-88h16.695313l-6.910156-82.9375c-1.304688-16.410157-12.582032-30.320313-28.367188-34.992188zm-64.464844-19.335938-.753906 1-14.398438-4.109374c-3.433593-.984376-5.800781-4.125-5.800781-7.695313v-11.929687h11.71875l16.640625 24.960937zm-124.953125-46.734374v-88h24c2.675781 0 5.171875-1.335938 6.65625-3.558594l8.71875-13.089844 4 7.273438c6.710938 11.972656 14.726563 23.167968 23.90625 33.375h-11.28125v4.6875c-.015625 5.117187-2.046875 10.027343-5.65625 13.65625l-2.34375 2.34375v19.3125h16v-12.929688c5.125-6.207031 7.949219-13.988281 8-22.039062 16.019531 16.738281 35.007813 30.355468 56 40.160156v18.808594c0 4.417968-3.582031 8-8 8h-112c-4.417969 0-8-3.582032-8-8zm-16-48.761719c-2.136719-.730469-4.023437-2.054688-5.429687-3.824219-2.339844-2.964844-3.148438-6.855469-2.195313-10.511719 1.070313-3.742187 3.925781-6.714843 7.625-7.933593zm-21.992187 36.152343-4.488282-26.941406c-3.578124-21.410156-3.355468-43.285156.648438-64.617187 9.558594-50.921875 54.023438-87.816407 105.832031-87.816407 51.808594 0 96.273438 36.894532 105.832031 87.816407 4.007813 21.335937 4.226563 43.210937.648438 64.625l-4.488281 26.933593c-2.894531 17.210938-12.859375 32.429688-27.480469 41.960938l-5.984375-8.976562c7.109375-4.332032 11.453125-12.050782 11.472656-20.375v-24c0-3.199219-1.90625-6.089844-4.847656-7.351563-34.636719-14.917969-63.378906-40.859375-81.75-73.792969l-10.402344-18.734375c-1.351562-2.445312-3.878906-4.007812-6.671875-4.121093-2.78125-.089844-5.417968 1.25-6.984375 3.550781l-13.625 20.449219h-27.71875c-4.417969 0-8 3.582031-8 8v8.414062c-11.171875 1.691406-20.277343 9.839844-23.199219 20.753906-1.921874 7.695313-.496093 15.84375 3.921876 22.429688 4.421874 6.585937 11.425781 10.988281 19.277343 12.121094v32.28125c.019531 8.324218 4.363281 16.042968 11.472657 20.375l-5.984376 8.976562c-14.617187-9.535156-24.582031-24.75-27.480468-41.960938zm50.273437 36.609376h11.71875v11.929687c0 3.574219-2.371093 6.714844-5.808593 7.695313l-14.398438 4.109374-.753906-1-7.40625 2.226563zm19.71875 211.414062v-119.597656l11.199219 4.488281c13.347656 5.363281 28.253906 5.363281 41.601562 0l11.199219-4.480469v100.527344c-22.480469 1.539062-44.339843 8.050781-64 19.0625zm75.199219-165.015625c-6.046875 8.191406-9.761719 17.867187-10.742188 28l-17.601562 7.042969c-9.53125 3.832031-20.175781 3.832031-29.710938 0l-17.601562-7.050782c-.980469-10.128906-4.695312-19.804687-10.742188-27.992187l-6.71875-8.957031 8.511719-2.402344c10.292969-2.980469 17.386719-12.394531 17.40625-23.109375v-11.929687h48v11.929687c.035157 10.703125 7.125 20.101563 17.410157 23.078125l8.511718 2.398438zm0 0"/></svg>