<svg id="Capa_1" enable-background="new 0 0 512 512" height="512" viewBox="0 0 512 512" width="512" xmlns="http://www.w3.org/2000/svg"><g><g><g><path d="m512 256c0 92.64-49.22 173.79-122.93 218.74h-.01l-233.19 16.93c-91.63-38.98-155.87-129.82-155.87-235.67 0-46.21 12.25-89.56 33.68-126.99 44.11-77.07 127.15-129.01 222.32-129.01s178.21 51.94 222.32 129.01c21.43 37.43 33.68 80.78 33.68 126.99z" fill="#65b2fe"/><path d="m512 256c0 92.64-49.22 173.79-122.93 218.74l-233.2 16.93c-91.63-38.98-155.87-129.82-155.87-235.67 0-46.21 12.25-89.56 33.68-126.99 44.12 77.07 127.16 129 222.32 129s178.2-51.93 222.32-129c21.43 37.43 33.68 80.78 33.68 126.99z" fill="#159de4"/></g></g><g><path d="m192.77 366.24h154.43v103.437h-154.43z" fill="#ffc0a4"/><path d="m274.31 366.24h72.89v103.437h-72.89z" fill="#ffa87a"/><path d="m192.765 366.237h154.43v66.39h-154.43z" fill="#ffa87a"/><path d="m274.306 366.237h72.89v66.39h-72.89z" fill="#e3835a"/><path d="m372.088 147.37v179.102c0 46.698-37.858 84.556-84.556 84.556h-75.959c-.485 0-.988 0-1.473-.017-5.876-.104-11.683-.815-17.334-2.115-6.258-1.421-12.325-3.553-18.08-6.362-8.424-4.056-16.173-9.534-22.916-16.277l-21.39-21.39c-1.023-1.023-2.028-2.063-2.999-3.12-2.028-2.201-3.969-4.49-5.772-6.864-1.213-1.525-2.357-3.103-3.432-4.698-2.513-3.623-4.75-7.367-6.76-11.25-1.352-2.617-2.583-5.287-3.709-8.008-1.265-3.051-2.375-6.154-3.346-9.326-3.033-9.846-4.611-20.177-4.611-30.682 0-7.02-.711-13.989-2.097-20.818-2.253-11.077-6.292-21.754-11.995-31.6l-9.881-17.057c-.901-1.577-1.317-3.241-1.317-4.871 0-5.114 4.074-9.811 9.777-9.811 19.882 0 38.274 10.609 48.241 27.804l20.576 35.535 4.022 6.951c5.339 9.239 19.466 5.443 19.466-5.235v-148.888c0-13.174 10.123-24.493 23.263-25.1 14.041-.659 25.62 10.522 25.62 24.407v-24.442c0-13.105 10.314-23.817 23.262-24.424.763-.035 1.543-.035 2.34 0 13.157.607 23.28 11.926 23.28 25.1v23.765c0-13.902 11.631-25.1 25.672-24.407 13.139.641 23.228 11.961 23.228 25.117v23.731c0-13.885 11.579-25.065 25.62-24.406 13.137.607 23.26 11.926 23.26 25.1z" fill="#ffc0a4"/><path d="m372.094 130.364v17.854h-195.548v-42.295c0-13.174 10.123-24.493 23.262-25.1 14.041-.659 25.62 10.522 25.62 24.406v-24.44c0-13.105 10.314-23.817 23.262-24.424.763-.035 1.543-.035 2.34 0 13.157.607 23.28 11.926 23.28 25.1v23.765c0-13.902 11.631-25.1 25.672-24.406 13.139.641 23.228 11.96 23.228 25.117v23.73c0-13.885 11.58-25.065 25.62-24.407 13.14.607 23.264 11.927 23.264 25.1z" fill="#c55732"/><path d="m372.088 130.37v196.102c0 3.016-.156 5.998-.485 8.944-.208 2.236-.537 4.455-.953 6.639-.433 2.357-.971 4.663-1.612 6.934-5.859 21.286-19.83 39.21-38.395 50.235-2.236 1.335-4.559 2.566-6.934 3.692-1.335.624-2.687 1.231-4.056 1.785-5.062 2.08-10.383 3.692-15.878 4.767-5.252 1.023-10.695 1.56-16.242 1.56h-13.226v-305.792c0-13.902 11.631-25.1 25.672-24.407 13.139.641 23.228 11.961 23.228 25.117v23.731c0-13.885 11.579-25.065 25.62-24.406 13.138.606 23.261 11.925 23.261 25.099z" fill="#ffa87a"/><path d="m372.094 130.364v17.854h-97.783v-42.988c0-13.902 11.631-25.1 25.672-24.406 13.139.641 23.228 11.96 23.228 25.117v23.73c0-13.885 11.58-25.065 25.62-24.407 13.139.607 23.263 11.927 23.263 25.1z" fill="#a63917"/><path d="m176.546 271.812v31.652c0 6.5-5.252 11.753-11.735 11.753-3.242 0-6.188-1.317-8.32-3.432-2.115-2.132-3.432-5.062-3.432-8.321v-33.368l4.022 6.951c5.338 9.239 19.465 5.442 19.465-5.235z" fill="#ffa87a"/><g><path d="m202.161 122.829v123.368c0 7.072-5.738 12.81-12.81 12.81-3.536 0-6.743-1.439-9.066-3.744-2.305-2.323-3.744-5.53-3.744-9.066v-98.962c0-13.884 11.579-25.065 25.62-24.406z" fill="#ffa87a"/><path d="m153.058 289.596h38.317c35.24 0 63.807 28.567 63.807 63.807 0 3.536-1.456 6.76-3.744 9.066-2.821 2.821-6.973 4.338-11.367 3.557-6.191-1.101-10.526-6.78-10.526-13.067 0-20.845-16.898-37.743-37.743-37.743h-26.992c-3.242 0-6.188-1.317-8.32-3.432-2.115-2.132-3.432-5.062-3.432-8.321z" fill="#ffa87a"/><path d="m299.978 124.056v106.707c0 5.153-5.738 9.333-12.81 9.333-3.536 0-6.743-1.048-9.066-2.728-2.305-1.692-3.744-4.029-3.744-6.605v-88.924c-.001-10.117 11.579-18.263 25.62-17.783z" fill="#e3835a"/><path d="m348.825 121.367v131.654c0 6.357-5.738 11.515-12.81 11.515-3.536 0-6.743-1.293-9.066-3.366-2.305-2.088-3.744-4.971-3.744-8.149v-109.714c0-12.481 11.58-22.532 25.62-21.94z" fill="#e3835a"/><path d="m251.043 128.54v103.777c0 4.294-5.738 7.778-12.81 7.778-3.536 0-6.743-.874-9.066-2.284-2.305-1.4-3.744-3.347-3.744-5.494v-88.537c0-7.999 10.123-14.872 23.28-15.24.797-.021 1.577-.021 2.34 0z" fill="#ffa87a"/></g><g fill="#a63917"><path d="m130.952 321.601h-26.591c.971 3.172 2.08 6.275 3.346 9.326 1.127 2.721 2.357 5.391 3.709 8.008h19.536c34.079 0 61.814 27.735 61.814 61.814v8.147c5.651 1.3 11.458 2.011 17.334 2.115v-10.262c0-43.647-35.501-79.148-79.148-79.148z"/><path d="m184.201 403.25c-2.257 0-4.161-1.749-4.319-4.034-.036-.525-.082-1.047-.135-1.567-.248-2.38 1.48-4.51 3.861-4.758 2.373-.254 4.51 1.48 4.758 3.861.065.618.119 1.24.163 1.865.165 2.388-1.637 4.458-4.024 4.623-.102.007-.204.01-.304.01zm-4.003-16.665c-1.681 0-3.281-.984-3.985-2.627-.208-.487-.423-.968-.645-1.447-1.011-2.169-.071-4.747 2.099-5.757 2.167-1.012 4.747-.072 5.757 2.099.261.558.511 1.122.755 1.69.943 2.2-.076 4.747-2.276 5.69-.557.24-1.136.352-1.705.352zm-9.23-14.44c-1.184 0-2.363-.482-3.218-1.43-.354-.392-.714-.778-1.079-1.157-1.66-1.724-1.608-4.467.115-6.128 1.725-1.659 4.467-1.607 6.128.115.43.447.852.901 1.269 1.362 1.604 1.777 1.464 4.517-.312 6.12-.83.749-1.869 1.118-2.903 1.118zm-13.42-10.673c-.711 0-1.431-.175-2.097-.545-.462-.256-.928-.504-1.397-.745-2.13-1.092-2.972-3.703-1.881-5.833 1.092-2.13 3.701-2.973 5.833-1.881.554.284 1.103.577 1.648.88 2.093 1.16 2.849 3.798 1.688 5.891-.792 1.427-2.27 2.233-3.794 2.233zm-16.153-5.723c-.249 0-.501-.022-.755-.066-.515-.091-1.035-.173-1.557-.246-2.37-.335-4.02-2.527-3.685-4.897.335-2.369 2.52-4.016 4.897-3.685.618.087 1.232.185 1.844.292 2.357.415 3.932 2.661 3.518 5.018-.368 2.103-2.197 3.584-4.262 3.584zm-17.186-9.447h-1.716c-2.236 0-4.091 1.699-4.316 3.883 1.075 1.595 2.219 3.172 3.432 4.698.277.052.572.087.884.087h1.716c2.392 0 4.334-1.941 4.334-4.334s-1.942-4.334-4.334-4.334z"/><path d="m174.686 402.535c-8.424-4.056-16.173-9.534-22.916-16.277l-21.39-21.39c-1.023-1.023-2.028-2.063-2.999-3.12h1.56c23.644-.001 43.145 17.836 45.745 40.787z"/><path d="m202.161 80.829v67.395h-25.62v-42.989c0-13.884 11.579-25.065 25.62-24.406z"/><path d="m251.043 56.37v91.854h-25.62v-66.754c0-13.174 10.123-24.493 23.28-25.1.797-.034 1.577-.034 2.34 0z"/></g><path d="m299.978 80.829v67.395h-25.62v-42.989c-.001-13.884 11.579-25.065 25.62-24.406z" fill="#7f200d"/><path d="m348.825 105.27v42.954h-25.62v-18.548c0-13.884 11.58-25.064 25.62-24.406z" fill="#7f200d"/><path d="m350.125 292.653c-41.879 0-75.82 33.94-75.82 75.802v42.573h13.226c5.547 0 10.99-.537 16.242-1.56v-41.013c0-25.551 20.801-46.334 46.352-46.334h21.962v-29.468z" fill="#7f200d"/><g><path d="m323.708 390.349c-3.831 0-6.934 3.103-6.934 6.934v1.803c0 2.323 1.127 4.368 2.877 5.616 1.369-.555 2.721-1.161 4.056-1.785 2.375-1.127 4.698-2.357 6.934-3.692v-1.941c.001-3.833-3.102-6.935-6.933-6.935zm0-17.959c-3.831 0-6.934 3.103-6.934 6.934v1.803c0 3.831 3.103 6.934 6.934 6.934s6.934-3.103 6.934-6.934v-1.803c0-3.831-3.103-6.934-6.934-6.934zm2.791-17.611c-3.71-1.023-7.523 1.144-8.528 4.836-.208.728-.381 1.456-.537 2.201-.763 3.762 1.664 7.419 5.426 8.182.468.087.919.139 1.387.139 3.224 0 6.119-2.271 6.778-5.564.087-.433.191-.849.312-1.283 1.021-3.692-1.146-7.506-4.838-8.511zm13.867-11.805c-2.236-3.12-6.57-3.831-9.673-1.595-.624.451-1.231.901-1.803 1.387-2.947 2.444-3.363 6.83-.919 9.777 1.369 1.647 3.346 2.496 5.339 2.496 1.56 0 3.137-.52 4.42-1.595.347-.277.693-.537 1.04-.797 3.122-2.236 3.832-6.57 1.596-9.673zm11.267-7.852h-1.855c-3.831.035-6.899 3.172-6.864 7.003.035 3.796 3.137 6.864 6.934 6.864h1.785c3.831 0 6.934-3.103 6.934-6.934 0-3.83-3.103-6.933-6.934-6.933zm17.959 0h-1.785c-3.831 0-6.934 3.103-6.934 6.934s3.103 6.934 6.934 6.934h1.231c.641-2.271 1.179-4.576 1.612-6.934.416-2.184.745-4.403.953-6.639-.625-.191-1.301-.295-2.011-.295z" fill="#7f200d"/></g><g><path d="m289.265 411.008c-2.872 0-5.2-2.328-5.2-5.2v-1.674c0-2.872 2.328-5.2 5.2-5.2s5.2 2.328 5.2 5.2v1.674c0 2.872-2.328 5.2-5.2 5.2zm0-16.739c-2.872 0-5.2-2.328-5.2-5.2v-1.674c0-2.872 2.328-5.2 5.2-5.2s5.2 2.328 5.2 5.2v1.674c0 2.871-2.328 5.2-5.2 5.2zm0-16.739c-2.872 0-5.2-2.328-5.2-5.2v-1.674c0-2.872 2.328-5.2 5.2-5.2s5.2 2.328 5.2 5.2v1.674c0 2.871-2.328 5.2-5.2 5.2zm.911-16.681c-.3 0-.605-.026-.912-.08-2.829-.5-4.715-3.199-4.215-6.026.106-.596.219-1.189.34-1.781.575-2.813 3.315-4.634 6.137-4.052 2.813.576 4.628 3.323 4.052 6.137-.102.5-.199 1.002-.288 1.507-.445 2.522-2.639 4.295-5.114 4.295zm5.182-15.855c-.774 0-1.559-.173-2.3-.539-2.575-1.272-3.63-4.39-2.358-6.966.268-.544.545-1.083.828-1.618 1.341-2.539 4.488-3.512 7.027-2.168 2.539 1.342 3.511 4.488 2.168 7.027-.239.452-.471.908-.699 1.368-.907 1.833-2.75 2.896-4.666 2.896zm9.415-13.778c-1.25 0-2.504-.449-3.502-1.358-2.123-1.935-2.274-5.224-.339-7.346.41-.449.825-.894 1.248-1.331 1.996-2.066 5.289-2.122 7.353-.126 2.065 1.995 2.122 5.287.126 7.353-.352.366-.7.736-1.042 1.11-1.026 1.126-2.432 1.698-3.844 1.698zm12.862-10.626c-1.748 0-3.454-.881-4.436-2.479-1.503-2.447-.738-5.65 1.709-7.153.517-.318 1.04-.629 1.568-.932 2.489-1.43 5.667-.571 7.1 1.92 1.43 2.49.571 5.668-1.92 7.1-.438.252-.873.51-1.304.774-.849.521-1.79.77-2.717.77zm15.292-6.63c-2.284 0-4.379-1.518-5.012-3.827-.758-2.77.872-5.631 3.641-6.39.587-.16 1.175-.312 1.767-.456 2.785-.686 5.602 1.034 6.281 3.825.678 2.791-1.034 5.603-3.825 6.281-.494.12-.986.247-1.474.382-.461.124-.923.185-1.378.185zm34.963-2.101h-1.674c-2.872 0-5.2-2.328-5.2-5.2s2.328-5.2 5.2-5.2h1.674c2.872 0 5.2 2.328 5.2 5.2s-2.328 5.2-5.2 5.2zm-16.739 0h-1.674c-2.872 0-5.2-2.328-5.2-5.2s2.328-5.2 5.2-5.2h1.674c2.872 0 5.2 2.328 5.2 5.2s-2.328 5.2-5.2 5.2z" fill="#ffa87a"/></g><path d="m114.447 270.101c-9.379 0-17.736-5.885-20.923-14.707-2.108-5.834-4.737-11.489-7.867-16.893l-9.881-17.057c-.901-1.577-1.317-3.241-1.317-4.871 0-5.114 4.074-9.811 9.777-9.811 19.882 0 38.274 10.609 48.241 27.804l1.231 2.126c8.591 14.838-2.115 33.409-19.261 33.409z" fill="#a63917"/><path d="m389.07 474.74c-38.77 23.64-84.33 37.26-133.07 37.26-35.53 0-69.38-7.24-100.13-20.33-.37-1.64-.59-3.35-.63-5.1-.02-.22-.02-.47-.02-.69 0-14.42 11.68-26.11 26.1-26.11h184.13c7.21 0 13.73 2.93 18.46 7.65 2.12 2.11 3.87 4.59 5.16 7.32z" fill="#fed110"/><path d="m389.07 474.74c-7.02 4.28-14.27 8.23-21.71 11.83h-212.12c-.02-.22-.02-.47-.02-.69 0-14.42 11.68-26.11 26.1-26.11h184.13c7.21 0 13.73 2.93 18.46 7.65 2.12 2.11 3.87 4.59 5.16 7.32z" fill="#fcbf10"/></g></g></svg>